<svg width="161" height="54" viewBox="0 0 161 54" fill="none" xmlns="http://www.w3.org/2000/svg">
<path d="M12.2917 50.8125C12.2917 50.2396 12.1354 49.7708 11.8229 49.4062C11.5104 49.0243 11.0417 48.8333 10.4167 48.8333H10.3125C8.99306 48.8333 8.33333 48.1736 8.33333 46.8542V38.4167C8.33333 37.809 8.13368 37.3142 7.73438 36.9323C7.35243 36.533 6.85764 36.3333 6.25 36.3333H6.14583C4.82639 36.3333 4.16667 35.6736 4.16667 34.3542V29.9792C4.16667 28.6597 3.50694 28 2.1875 28H1.97917C0.659722 28 0 27.3403 0 26.0208V25.8125C0 24.4931 0.659722 23.8333 1.97917 23.8333H10.5208C11.8403 23.8333 12.5 24.4931 12.5 25.8125V26.0208C12.5 27.3403 11.8403 28 10.5208 28H10.3125C8.99306 28 8.33333 28.6597 8.33333 29.9792V34.25C8.33333 34.8403 8.53299 35.3351 8.93229 35.7344C9.3316 36.1337 9.82639 36.3333 10.4167 36.3333H10.5208C11.8403 36.3333 12.5 36.9931 12.5 38.3125V46.75C12.5 47.375 12.6823 47.8438 13.0469 48.1562C13.4288 48.4687 13.9063 48.625 14.4792 48.625H14.6875C15.2604 48.625 15.7292 48.4687 16.0938 48.1562C16.4757 47.8438 16.6667 47.375 16.6667 46.75V38.3125C16.6667 36.9931 17.3264 36.3333 18.6458 36.3333H18.75C19.3576 36.3333 19.8524 36.1337 20.2344 35.7344C20.6337 35.3351 20.8333 34.8403 20.8333 34.25V29.9792C20.8333 28.6597 20.1736 28 18.8542 28H18.6458C17.3264 28 16.6667 27.3403 16.6667 26.0208V25.8125C16.6667 24.4931 17.3264 23.8333 18.6458 23.8333H27.1875C28.5069 23.8333 29.1667 24.4931 29.1667 25.8125V26.0208C29.1667 27.3403 28.5069 28 27.1875 28H26.9792C25.6597 28 25 28.6597 25 29.9792V34.3542C25 35.6736 24.3403 36.3333 23.0208 36.3333H22.9167C22.3264 36.3333 21.8316 36.533 21.4323 36.9323C21.033 37.3142 20.8333 37.809 20.8333 38.4167V46.8542C20.8333 48.1736 20.1736 48.8333 18.8542 48.8333H18.75C18.125 48.8333 17.6563 49.0243 17.3438 49.4062C17.0313 49.7708 16.875 50.2396 16.875 50.8125V51.0208C16.875 51.6458 16.6667 52.1667 16.25 52.5833C15.8333 53 15.3125 53.2083 14.6875 53.2083H14.4792C13.8542 53.2083 13.3333 53 12.9167 52.5833C12.5 52.1667 12.2917 51.6458 12.2917 51.0208V50.8125Z" fill="black"/>
<path d="M30.6185 46.6458C30.6185 46.0729 30.4622 45.6042 30.1497 45.2396C29.8372 44.8576 29.3685 44.6667 28.7435 44.6667H28.6393C27.3199 44.6667 26.6602 44.0069 26.6602 42.6875V34.1458C26.6602 32.8264 27.3199 32.1667 28.6393 32.1667H28.7435C29.3685 32.1667 29.8372 31.9844 30.1497 31.6198C30.4622 31.2378 30.6185 30.7604 30.6185 30.1875V29.9792C30.6185 29.3542 30.8268 28.8333 31.2435 28.4167C31.6602 28 32.181 27.7917 32.806 27.7917H33.0143C33.5872 27.7917 34.056 27.6354 34.4206 27.3229C34.8025 27.0104 34.9935 26.5417 34.9935 25.9167V25.8125C34.9935 24.4931 35.6532 23.8333 36.9727 23.8333H41.3477C42.6671 23.8333 43.3268 24.4931 43.3268 25.8125V25.9167C43.3268 26.5417 43.5091 27.0104 43.8737 27.3229C44.2556 27.6354 44.7331 27.7917 45.306 27.7917H45.5143C46.1393 27.7917 46.6602 28 47.0768 28.4167C47.4935 28.8333 47.7018 29.3542 47.7018 29.9792V30.1875C47.7018 30.7604 47.8581 31.2378 48.1706 31.6198C48.4831 31.9844 48.9518 32.1667 49.5768 32.1667H49.681C51.0004 32.1667 51.6602 32.8264 51.6602 34.1458V42.6875C51.6602 44.0069 51.0004 44.6667 49.681 44.6667H49.5768C48.9518 44.6667 48.4831 44.8576 48.1706 45.2396C47.8581 45.6042 47.7018 46.0729 47.7018 46.6458V46.8542C47.7018 47.4792 47.4935 48 47.0768 48.4167C46.6602 48.8333 46.1393 49.0417 45.5143 49.0417H45.306C44.7331 49.0417 44.2556 49.1979 43.8737 49.5104C43.5091 49.8229 43.3268 50.2917 43.3268 50.9167V51.0208C43.3268 52.3403 42.6671 53 41.3477 53H36.9727C35.6532 53 34.9935 52.3403 34.9935 51.0208V50.9167C34.9935 50.2917 34.8025 49.8229 34.4206 49.5104C34.056 49.1979 33.5872 49.0417 33.0143 49.0417H32.806C32.181 49.0417 31.6602 48.8333 31.2435 48.4167C30.8268 48 30.6185 47.4792 30.6185 46.8542V46.6458ZM35.2018 46.8542C35.2018 47.4271 35.3581 47.9045 35.6706 48.2865C35.9831 48.651 36.4518 48.8333 37.0768 48.8333H41.2435C41.8685 48.8333 42.3372 48.651 42.6497 48.2865C42.9622 47.9045 43.1185 47.4271 43.1185 46.8542V46.6458C43.1185 46.0208 43.3268 45.5 43.7435 45.0833C44.1602 44.6667 44.681 44.4583 45.306 44.4583H45.5143C46.0872 44.4583 46.556 44.3021 46.9206 43.9896C47.3025 43.6771 47.4935 43.2083 47.4935 42.5833V34.25C47.4935 33.625 47.3025 33.1563 46.9206 32.8438C46.556 32.5312 46.0872 32.375 45.5143 32.375H45.306C44.681 32.375 44.1602 32.1667 43.7435 31.75C43.3268 31.3333 43.1185 30.8125 43.1185 30.1875V29.9792C43.1185 29.4062 42.9622 28.9375 42.6497 28.5729C42.3372 28.191 41.8685 28 41.2435 28H37.0768C36.4518 28 35.9831 28.191 35.6706 28.5729C35.3581 28.9375 35.2018 29.4062 35.2018 29.9792V30.1875C35.2018 30.8125 34.9935 31.3333 34.5768 31.75C34.1602 32.1667 33.6393 32.375 33.0143 32.375H32.806C32.2331 32.375 31.7556 32.5312 31.3737 32.8438C31.0091 33.1563 30.8268 33.625 30.8268 34.25V42.5833C30.8268 43.2083 31.0091 43.6771 31.3737 43.9896C31.7556 44.3021 32.2331 44.4583 32.806 44.4583H33.0143C33.6393 44.4583 34.1602 44.6667 34.5768 45.0833C34.9935 45.5 35.2018 46.0208 35.2018 46.6458V46.8542Z" fill="black"/>
<path d="M57.487 46.75C57.487 47.3403 57.6866 47.8351 58.0859 48.2344C58.4852 48.6337 58.98 48.8333 59.5703 48.8333H67.9036C68.5286 48.8333 68.9974 48.651 69.3099 48.2865C69.6224 47.9045 69.7786 47.4271 69.7786 46.8542V46.6458C69.7786 46.0208 69.987 45.5 70.4036 45.0833C70.8203 44.6667 71.3411 44.4583 71.9661 44.4583H72.1745C72.7995 44.4583 73.3203 44.6667 73.737 45.0833C74.1536 45.5 74.362 46.0208 74.362 46.6458V46.8542C74.362 47.4792 74.1536 48 73.737 48.4167C73.3203 48.8333 72.7995 49.0417 72.1745 49.0417H71.9661C71.3932 49.0417 70.9158 49.1979 70.5339 49.5104C70.1693 49.8229 69.987 50.2917 69.987 50.9167V51.0208C69.987 52.3403 69.3273 53 68.0078 53H59.4661C58.1467 53 57.487 52.3403 57.487 51.0208V50.9167C57.487 50.309 57.2873 49.8142 56.888 49.4323C56.5061 49.033 56.0113 48.8333 55.4036 48.8333H55.2995C53.98 48.8333 53.3203 48.1736 53.3203 46.8542V29.9792C53.3203 28.6597 53.98 28 55.2995 28H55.4036C56.0113 28 56.5061 27.8003 56.888 27.401C57.2873 27.0017 57.487 26.5069 57.487 25.9167V25.8125C57.487 24.4931 58.1467 23.8333 59.4661 23.8333H68.0078C69.3273 23.8333 69.987 24.4931 69.987 25.8125V25.9167C69.987 26.5417 70.1693 27.0104 70.5339 27.3229C70.9158 27.6354 71.3932 27.7917 71.9661 27.7917H72.1745C72.7995 27.7917 73.3203 28 73.737 28.4167C74.1536 28.8333 74.362 29.3542 74.362 29.9792V30.1875C74.362 30.8125 74.1536 31.3333 73.737 31.75C73.3203 32.1667 72.7995 32.375 72.1745 32.375H71.9661C71.3411 32.375 70.8203 32.1667 70.4036 31.75C69.987 31.3333 69.7786 30.8125 69.7786 30.1875V29.9792C69.7786 29.4062 69.6224 28.9375 69.3099 28.5729C68.9974 28.191 68.5286 28 67.9036 28H59.5703C58.98 28 58.4852 28.1997 58.0859 28.599C57.6866 28.9809 57.487 29.4757 57.487 30.0833V46.75Z" fill="black"/>
<path d="M82.5033 46.75C82.5033 47.3403 82.7029 47.8351 83.1022 48.2344C83.5015 48.6337 83.9963 48.8333 84.5866 48.8333H88.7533C89.3609 48.8333 89.8557 48.6337 90.2376 48.2344C90.6369 47.8351 90.8366 47.3403 90.8366 46.75V46.6458C90.8366 45.3264 91.4963 44.6667 92.8158 44.6667H92.9199C93.5276 44.6667 94.0224 44.467 94.4043 44.0677C94.8036 43.6684 95.0033 43.1736 95.0033 42.5833V30.0833C95.0033 29.4757 94.8036 28.9809 94.4043 28.599C94.0224 28.1997 93.5276 28 92.9199 28H92.8158C91.4963 28 90.8366 27.3403 90.8366 26.0208V25.8125C90.8366 24.4931 91.4963 23.8333 92.8158 23.8333H97.0866C97.7116 23.8333 98.2151 24.0243 98.597 24.4062C98.979 24.7882 99.1699 25.2917 99.1699 25.9167V42.5833C99.1699 43.1736 99.3696 43.6684 99.7689 44.0677C100.168 44.467 100.663 44.6667 101.253 44.6667H101.357C102.677 44.6667 103.337 45.3264 103.337 46.6458V46.8542C103.337 48.1736 102.677 48.8333 101.357 48.8333H101.253C100.663 48.8333 100.168 49.033 99.7689 49.4323C99.3696 49.8142 99.1699 50.309 99.1699 50.9167V51.0208C99.1699 52.3403 98.5102 53 97.1908 53H96.9824C95.663 53 95.0033 52.3403 95.0033 51.0208V50.9167C95.0033 50.309 94.8036 49.8142 94.4043 49.4323C94.0224 49.033 93.5276 48.8333 92.9199 48.8333C92.3296 48.8333 91.8349 49.033 91.4355 49.4323C91.0362 49.8142 90.8366 50.309 90.8366 50.9167V51.0208C90.8366 52.3403 90.1769 53 88.8574 53H84.4824C83.163 53 82.5033 52.3403 82.5033 51.0208V50.9167C82.5033 50.309 82.3036 49.8142 81.9043 49.4323C81.5224 49.033 81.0276 48.8333 80.4199 48.8333H80.3158C78.9963 48.8333 78.3366 48.1736 78.3366 46.8542V30.0833C78.3366 29.4757 78.1369 28.9809 77.7376 28.599C77.3557 28.1997 76.8609 28 76.2533 28H76.1491C74.8296 28 74.1699 27.3403 74.1699 26.0208V25.8125C74.1699 24.4931 74.8296 23.8333 76.1491 23.8333H80.4199C81.0449 23.8333 81.5484 24.0243 81.9303 24.4062C82.3123 24.7882 82.5033 25.2917 82.5033 25.9167V46.75Z" fill="black"/>
<path d="M113.314 46.75C113.314 47.3403 113.513 47.8351 113.913 48.2344C114.312 48.6337 114.807 48.8333 115.397 48.8333H119.564C120.171 48.8333 120.666 48.6337 121.048 48.2344C121.447 47.8351 121.647 47.3403 121.647 46.75V42.5833C121.647 41.9757 121.447 41.4809 121.048 41.099C120.666 40.6997 120.171 40.5 119.564 40.5H111.126C109.807 40.5 109.147 39.8403 109.147 38.5208V38.4167C109.147 37.809 108.947 37.3142 108.548 36.9323C108.166 36.533 107.671 36.3333 107.064 36.3333H106.96C105.64 36.3333 104.98 35.6736 104.98 34.3542V29.9792C104.98 28.6597 105.64 28 106.96 28H107.064C107.671 28 108.166 27.8003 108.548 27.401C108.947 27.0017 109.147 26.5069 109.147 25.9167V25.8125C109.147 24.4931 109.807 23.8333 111.126 23.8333H115.501C116.821 23.8333 117.48 24.4931 117.48 25.8125V25.9167C117.48 26.5069 117.68 27.0017 118.079 27.401C118.479 27.8003 118.974 28 119.564 28C120.171 28 120.666 27.8003 121.048 27.401C121.447 27.0017 121.647 26.5069 121.647 25.9167V25.8125C121.647 24.4931 122.307 23.8333 123.626 23.8333H123.835C125.154 23.8333 125.814 24.4931 125.814 25.8125V30.0833C125.814 30.7083 125.623 31.2118 125.241 31.5937C124.859 31.9757 124.355 32.1667 123.73 32.1667H119.46C118.14 32.1667 117.48 31.5069 117.48 30.1875V30.0833C117.48 29.4757 117.281 28.9809 116.882 28.599C116.5 28.1997 116.005 28 115.397 28H111.23C110.64 28 110.145 28.1997 109.746 28.599C109.347 28.9809 109.147 29.4757 109.147 30.0833V34.25C109.147 34.8403 109.347 35.3351 109.746 35.7344C110.145 36.1337 110.64 36.3333 111.23 36.3333H119.668C120.987 36.3333 121.647 36.9931 121.647 38.3125V38.4167C121.647 39.0069 121.847 39.5017 122.246 39.901C122.645 40.3003 123.14 40.5 123.73 40.5H123.835C125.154 40.5 125.814 41.1597 125.814 42.4792V46.8542C125.814 48.1736 125.154 48.8333 123.835 48.8333H123.73C123.14 48.8333 122.645 49.033 122.246 49.4323C121.847 49.8142 121.647 50.309 121.647 50.9167V51.0208C121.647 52.3403 120.987 53 119.668 53H115.293C113.974 53 113.314 52.3403 113.314 51.0208V50.9167C113.314 50.309 113.114 49.8142 112.715 49.4323C112.333 49.033 111.838 48.8333 111.23 48.8333C110.64 48.8333 110.145 49.033 109.746 49.4323C109.347 49.8142 109.147 50.309 109.147 50.9167V51.0208C109.147 52.3403 108.487 53 107.168 53H106.96C105.64 53 104.98 52.3403 104.98 51.0208V46.75C104.98 46.125 105.171 45.6215 105.553 45.2396C105.935 44.8576 106.439 44.6667 107.064 44.6667H111.335C112.654 44.6667 113.314 45.3264 113.314 46.6458V46.75Z" fill="black"/>
<path d="M5.76667 13.3333C5.76667 13.1389 5.70278 12.9806 5.575 12.8583C5.45278 12.7306 5.29444 12.6667 5.1 12.6667C4.91111 12.6667 4.75278 12.7306 4.625 12.8583C4.49722 12.9806 4.43333 13.1389 4.43333 13.3333V13.3667C4.43333 13.7889 4.22222 14 3.8 14H2.43333C2.24444 14 2.08611 14.0639 1.95833 14.1917C1.83056 14.3139 1.76667 14.4722 1.76667 14.6667V16C1.76667 16.1889 1.83056 16.3472 1.95833 16.475C2.08611 16.6028 2.24444 16.6667 2.43333 16.6667H3.76667C3.96111 16.6667 4.11944 16.6028 4.24167 16.475C4.36944 16.3472 4.43333 16.1889 4.43333 16V15.9667C4.43333 15.5444 4.64444 15.3333 5.06667 15.3333H5.1C5.29444 15.3333 5.45278 15.2694 5.575 15.1417C5.70278 15.0139 5.76667 14.8556 5.76667 14.6667V13.3333ZM1.76667 17.3333C1.76667 17.1389 1.70278 16.9806 1.575 16.8583C1.45278 16.7306 1.29444 16.6667 1.1 16.6667H1.06667C0.644444 16.6667 0.433333 16.4556 0.433333 16.0333V14.6333C0.433333 14.2111 0.644444 14 1.06667 14H1.1C1.29444 14 1.45278 13.9361 1.575 13.8083C1.70278 13.6806 1.76667 13.5222 1.76667 13.3333V13.3C1.76667 12.8778 1.97778 12.6667 2.4 12.6667H3.76667C3.96111 12.6667 4.11944 12.6028 4.24167 12.475C4.36944 12.3472 4.43333 12.1889 4.43333 12V11.9667C4.43333 11.5444 4.64444 11.3333 5.06667 11.3333H5.1C5.29444 11.3333 5.45278 11.2694 5.575 11.1417C5.70278 11.0139 5.76667 10.8556 5.76667 10.6667C5.76667 10.4722 5.70278 10.3139 5.575 10.1917C5.45278 10.0639 5.29444 10 5.1 10H2.43333C2.23333 10 2.08333 10.0611 1.98333 10.1833C1.88333 10.3 1.83333 10.45 1.83333 10.6333V10.7C1.83333 10.9 1.76667 11.0667 1.63333 11.2C1.5 11.3333 1.33333 11.4 1.13333 11.4H1.06667C0.866667 11.4 0.7 11.3333 0.566667 11.2C0.433333 11.0667 0.366667 10.9 0.366667 10.7V10.6333C0.366667 10.4333 0.433333 10.2667 0.566667 10.1333C0.7 10 0.866667 9.93333 1.06667 9.93333H1.13333C1.31667 9.93333 1.46667 9.88333 1.58333 9.78333C1.70556 9.68333 1.76667 9.53333 1.76667 9.33333V9.3C1.76667 8.87778 1.97778 8.66667 2.4 8.66667H5.13333C5.55556 8.66667 5.76667 8.87778 5.76667 9.3V9.33333C5.76667 9.52222 5.83056 9.68055 5.95833 9.80833C6.08611 9.93611 6.24444 10 6.43333 10H6.46667C6.88889 10 7.1 10.2111 7.1 10.6333V16.0333C7.1 16.4556 7.31111 16.6667 7.73333 16.6667H7.8C8.22222 16.6667 8.43333 16.8778 8.43333 17.3V17.3667C8.43333 17.7889 8.22222 18 7.8 18H6.4C5.97778 18 5.76667 17.7889 5.76667 17.3667V17.3333C5.76667 17.1389 5.70278 16.9806 5.575 16.8583C5.45278 16.7306 5.29444 16.6667 5.1 16.6667C4.91111 16.6667 4.75278 16.7306 4.625 16.8583C4.49722 16.9806 4.43333 17.1389 4.43333 17.3333V17.3667C4.43333 17.7889 4.22222 18 3.8 18H2.4C1.97778 18 1.76667 17.7889 1.76667 17.3667V17.3333Z" fill="black"/>
<path d="M10.2979 16.0333V11.9667C10.2979 11.5444 10.0868 11.3333 9.66458 11.3333H9.59792C9.17569 11.3333 8.96458 11.1222 8.96458 10.7V10.6333C8.96458 10.2111 9.17569 10 9.59792 10H9.66458C10.0868 10 10.2979 9.78889 10.2979 9.36667V9.3C10.2979 8.87778 10.509 8.66667 10.9312 8.66667H10.9979C11.4201 8.66667 11.6313 8.87778 11.6313 9.3V9.33333C11.6313 9.52222 11.6951 9.68055 11.8229 9.80833C11.9507 9.93611 12.109 10 12.2979 10C12.4924 10 12.6507 9.93611 12.7729 9.80833C12.9007 9.68055 12.9646 9.52222 12.9646 9.33333V9.3C12.9646 8.87778 13.1757 8.66667 13.5979 8.66667H14.9979C15.4201 8.66667 15.6313 8.87778 15.6313 9.3V9.33333C15.6313 9.52222 15.6951 9.68055 15.8229 9.80833C15.9507 9.93611 16.109 10 16.2979 10H17.6313C17.8257 10 17.984 9.93611 18.1063 9.80833C18.234 9.68055 18.2979 9.52222 18.2979 9.33333V9.3C18.2979 8.87778 18.509 8.66667 18.9312 8.66667H20.3313C20.7535 8.66667 20.9646 8.87778 20.9646 9.3V9.33333C20.9646 9.52222 21.0285 9.68055 21.1562 9.80833C21.284 9.93611 21.4424 10 21.6313 10H21.6646C22.0868 10 22.2979 10.2111 22.2979 10.6333V16.0333C22.2979 16.4556 22.509 16.6667 22.9313 16.6667H22.9979C23.4201 16.6667 23.6313 16.8778 23.6313 17.3V17.3667C23.6313 17.7889 23.4201 18 22.9979 18H20.2646C19.8424 18 19.6313 17.7889 19.6313 17.3667V17.3C19.6313 16.8778 19.8424 16.6667 20.2646 16.6667H20.3313C20.7535 16.6667 20.9646 16.4556 20.9646 16.0333V10.6667C20.9646 10.4722 20.9007 10.3139 20.7729 10.1917C20.6507 10.0639 20.4924 10 20.2979 10H18.9646C18.7757 10 18.6174 10.0639 18.4896 10.1917C18.3618 10.3139 18.2979 10.4722 18.2979 10.6667V10.7C18.2979 11.1222 18.0868 11.3333 17.6646 11.3333H17.6313C17.4424 11.3333 17.284 11.3972 17.1562 11.525C17.0285 11.6472 16.9646 11.8056 16.9646 12V16.0333C16.9646 16.4556 17.1757 16.6667 17.5979 16.6667H17.6646C18.0868 16.6667 18.2979 16.8778 18.2979 17.3V17.3667C18.2979 17.7889 18.0868 18 17.6646 18H14.9313C14.509 18 14.2979 17.7889 14.2979 17.3667V17.3C14.2979 16.8778 14.509 16.6667 14.9313 16.6667H14.9979C15.4201 16.6667 15.6313 16.4556 15.6313 16.0333V10.6667C15.6313 10.4722 15.5674 10.3139 15.4396 10.1917C15.3174 10.0639 15.159 10 14.9646 10H13.6313C13.4424 10 13.284 10.0639 13.1562 10.1917C13.0285 10.3139 12.9646 10.4722 12.9646 10.6667V10.7C12.9646 11.1222 12.7535 11.3333 12.3313 11.3333H12.2979C12.109 11.3333 11.9507 11.3972 11.8229 11.525C11.6951 11.6472 11.6313 11.8056 11.6313 12V16.0333C11.6313 16.4556 11.8424 16.6667 12.2646 16.6667H12.3313C12.7535 16.6667 12.9646 16.8778 12.9646 17.3V17.3667C12.9646 17.7889 12.7535 18 12.3313 18H9.59792C9.17569 18 8.96458 17.7889 8.96458 17.3667V17.3C8.96458 16.8778 9.17569 16.6667 9.59792 16.6667H9.66458C10.0868 16.6667 10.2979 16.4556 10.2979 16.0333Z" fill="black"/>
<path d="M28.9698 13.3333C28.9698 13.1389 28.9059 12.9806 28.7781 12.8583C28.6559 12.7306 28.4976 12.6667 28.3031 12.6667C28.1142 12.6667 27.9559 12.7306 27.8281 12.8583C27.7003 12.9806 27.6365 13.1389 27.6365 13.3333V13.3667C27.6365 13.7889 27.4253 14 27.0031 14H25.6365C25.4476 14 25.2892 14.0639 25.1615 14.1917C25.0337 14.3139 24.9698 14.4722 24.9698 14.6667V16C24.9698 16.1889 25.0337 16.3472 25.1615 16.475C25.2892 16.6028 25.4476 16.6667 25.6365 16.6667H26.9698C27.1642 16.6667 27.3226 16.6028 27.4448 16.475C27.5726 16.3472 27.6365 16.1889 27.6365 16V15.9667C27.6365 15.5444 27.8476 15.3333 28.2698 15.3333H28.3031C28.4976 15.3333 28.6559 15.2694 28.7781 15.1417C28.9059 15.0139 28.9698 14.8556 28.9698 14.6667V13.3333ZM24.9698 17.3333C24.9698 17.1389 24.9059 16.9806 24.7781 16.8583C24.6559 16.7306 24.4976 16.6667 24.3031 16.6667H24.2698C23.8476 16.6667 23.6365 16.4556 23.6365 16.0333V14.6333C23.6365 14.2111 23.8476 14 24.2698 14H24.3031C24.4976 14 24.6559 13.9361 24.7781 13.8083C24.9059 13.6806 24.9698 13.5222 24.9698 13.3333V13.3C24.9698 12.8778 25.1809 12.6667 25.6031 12.6667H26.9698C27.1642 12.6667 27.3226 12.6028 27.4448 12.475C27.5726 12.3472 27.6365 12.1889 27.6365 12V11.9667C27.6365 11.5444 27.8476 11.3333 28.2698 11.3333H28.3031C28.4976 11.3333 28.6559 11.2694 28.7781 11.1417C28.9059 11.0139 28.9698 10.8556 28.9698 10.6667C28.9698 10.4722 28.9059 10.3139 28.7781 10.1917C28.6559 10.0639 28.4976 10 28.3031 10H25.6365C25.4365 10 25.2865 10.0611 25.1865 10.1833C25.0865 10.3 25.0365 10.45 25.0365 10.6333V10.7C25.0365 10.9 24.9698 11.0667 24.8365 11.2C24.7031 11.3333 24.5365 11.4 24.3365 11.4H24.2698C24.0698 11.4 23.9031 11.3333 23.7698 11.2C23.6365 11.0667 23.5698 10.9 23.5698 10.7V10.6333C23.5698 10.4333 23.6365 10.2667 23.7698 10.1333C23.9031 10 24.0698 9.93333 24.2698 9.93333H24.3365C24.5198 9.93333 24.6698 9.88333 24.7865 9.78333C24.9087 9.68333 24.9698 9.53333 24.9698 9.33333V9.3C24.9698 8.87778 25.1809 8.66667 25.6031 8.66667H28.3365C28.7587 8.66667 28.9698 8.87778 28.9698 9.3V9.33333C28.9698 9.52222 29.0337 9.68055 29.1615 9.80833C29.2892 9.93611 29.4476 10 29.6365 10H29.6698C30.092 10 30.3031 10.2111 30.3031 10.6333V16.0333C30.3031 16.4556 30.5142 16.6667 30.9365 16.6667H31.0031C31.4253 16.6667 31.6365 16.8778 31.6365 17.3V17.3667C31.6365 17.7889 31.4253 18 31.0031 18H29.6031C29.1809 18 28.9698 17.7889 28.9698 17.3667V17.3333C28.9698 17.1389 28.9059 16.9806 28.7781 16.8583C28.6559 16.7306 28.4976 16.6667 28.3031 16.6667C28.1142 16.6667 27.9559 16.7306 27.8281 16.8583C27.7003 16.9806 27.6365 17.1389 27.6365 17.3333V17.3667C27.6365 17.7889 27.4253 18 27.0031 18H25.6031C25.1809 18 24.9698 17.7889 24.9698 17.3667V17.3333Z" fill="black"/>
<path d="M40.701 17.3333C40.701 17.1389 40.6372 16.9806 40.5094 16.8583C40.3872 16.7306 40.2288 16.6667 40.0344 16.6667H40.001C39.5788 16.6667 39.3677 16.4556 39.3677 16.0333V10.6333C39.3677 10.2111 39.1566 10 38.7344 10H38.6677C38.2455 10 38.0344 9.78889 38.0344 9.36667V9.3C38.0344 8.87778 38.2455 8.66667 38.6677 8.66667H38.7344C39.1566 8.66667 39.3677 8.45555 39.3677 8.03333V6.63333C39.3677 6.21111 39.5788 6 40.001 6H40.0677C40.4899 6 40.701 6.21111 40.701 6.63333V8.03333C40.701 8.45555 40.9122 8.66667 41.3344 8.66667H42.7344C43.1566 8.66667 43.3677 8.87778 43.3677 9.3V9.36667C43.3677 9.78889 43.1566 10 42.7344 10H41.3344C40.9122 10 40.701 10.2111 40.701 10.6333V16C40.701 16.1889 40.7649 16.3472 40.8927 16.475C41.0205 16.6028 41.1788 16.6667 41.3677 16.6667H42.701C42.901 16.6667 43.051 16.6083 43.151 16.4917C43.251 16.3694 43.301 16.2167 43.301 16.0333V15.9667C43.301 15.7667 43.3677 15.6 43.501 15.4667C43.6344 15.3333 43.801 15.2667 44.001 15.2667H44.0677C44.2677 15.2667 44.4344 15.3333 44.5677 15.4667C44.701 15.6 44.7677 15.7667 44.7677 15.9667V16.0333C44.7677 16.2333 44.701 16.4 44.5677 16.5333C44.4344 16.6667 44.2677 16.7333 44.0677 16.7333H44.001C43.8177 16.7333 43.6649 16.7833 43.5427 16.8833C43.426 16.9833 43.3677 17.1333 43.3677 17.3333V17.3667C43.3677 17.7889 43.1566 18 42.7344 18H41.3344C40.9122 18 40.701 17.7889 40.701 17.3667V17.3333ZM33.501 16.0333V11.9667C33.501 11.5444 33.2899 11.3333 32.8677 11.3333H32.801C32.3788 11.3333 32.1677 11.1222 32.1677 10.7V10.6333C32.1677 10.2111 32.3788 10 32.801 10H32.8677C33.2899 10 33.501 9.78889 33.501 9.36667V9.3C33.501 8.87778 33.7122 8.66667 34.1344 8.66667H34.201C34.6233 8.66667 34.8344 8.87778 34.8344 9.3V9.33333C34.8344 9.52222 34.8983 9.68055 35.026 9.80833C35.1538 9.93611 35.3122 10 35.501 10C35.701 10 35.851 9.94167 35.951 9.825C36.051 9.70278 36.101 9.55 36.101 9.36667V9.3C36.101 9.1 36.1677 8.93333 36.301 8.8C36.4344 8.66667 36.601 8.6 36.801 8.6H36.8677C37.0677 8.6 37.2344 8.66667 37.3677 8.8C37.501 8.93333 37.5677 9.1 37.5677 9.3V9.36667C37.5677 9.56667 37.501 9.73333 37.3677 9.86667C37.2344 10 37.0677 10.0667 36.8677 10.0667H36.801C36.6177 10.0667 36.4649 10.1167 36.3427 10.2167C36.226 10.3167 36.1677 10.4667 36.1677 10.6667V10.7C36.1677 11.1222 35.9566 11.3333 35.5344 11.3333H35.4677C35.0455 11.3333 34.8344 11.5444 34.8344 11.9667V16.0333C34.8344 16.4556 35.0455 16.6667 35.4677 16.6667H35.5344C35.9566 16.6667 36.1677 16.8778 36.1677 17.3V17.3667C36.1677 17.7889 35.9566 18 35.5344 18H32.801C32.3788 18 32.1677 17.7889 32.1677 17.3667V17.3C32.1677 16.8778 32.3788 16.6667 32.801 16.6667H32.8677C33.2899 16.6667 33.501 16.4556 33.501 16.0333Z" fill="black"/>
<path d="M46.0323 16.0333V6.66667C46.0323 6.47222 45.9684 6.31389 45.8406 6.19167C45.7184 6.06389 45.5601 6 45.3656 6H45.3323C44.9101 6 44.699 5.78889 44.699 5.36667V5.3C44.699 4.87778 44.9101 4.66667 45.3323 4.66667H45.3656C45.5601 4.66667 45.7184 4.60278 45.8406 4.475C45.9684 4.34722 46.0323 4.18889 46.0323 4V3.96667C46.0323 3.54444 46.2434 3.33333 46.6656 3.33333H46.7323C47.1545 3.33333 47.3656 3.54444 47.3656 3.96667V9.33333C47.3656 9.52222 47.4295 9.68055 47.5573 9.80833C47.6851 9.93611 47.8434 10 48.0323 10C48.2267 10 48.3851 9.93611 48.5073 9.80833C48.6351 9.68055 48.699 9.52222 48.699 9.33333V9.3C48.699 8.87778 48.9101 8.66667 49.3323 8.66667H50.7323C51.1545 8.66667 51.3656 8.87778 51.3656 9.3V9.33333C51.3656 9.52222 51.4295 9.68055 51.5573 9.80833C51.6851 9.93611 51.8434 10 52.0323 10H52.0656C52.4878 10 52.699 10.2111 52.699 10.6333V16.0333C52.699 16.4556 52.9101 16.6667 53.3323 16.6667H53.399C53.8212 16.6667 54.0323 16.8778 54.0323 17.3V17.3667C54.0323 17.7889 53.8212 18 53.399 18H50.6656C50.2434 18 50.0323 17.7889 50.0323 17.3667V17.3C50.0323 16.8778 50.2434 16.6667 50.6656 16.6667H50.7323C51.1545 16.6667 51.3656 16.4556 51.3656 16.0333V10.6667C51.3656 10.4722 51.3017 10.3139 51.174 10.1917C51.0517 10.0639 50.8934 10 50.699 10H49.3656C49.1767 10 49.0184 10.0639 48.8906 10.1917C48.7628 10.3139 48.699 10.4722 48.699 10.6667V10.7C48.699 11.1222 48.4878 11.3333 48.0656 11.3333H48.0323C47.8434 11.3333 47.6851 11.3972 47.5573 11.525C47.4295 11.6472 47.3656 11.8056 47.3656 12V16.0333C47.3656 16.4556 47.5767 16.6667 47.999 16.6667H48.0656C48.4878 16.6667 48.699 16.8778 48.699 17.3V17.3667C48.699 17.7889 48.4878 18 48.0656 18H45.3323C44.9101 18 44.699 17.7889 44.699 17.3667V17.3C44.699 16.8778 44.9101 16.6667 45.3323 16.6667H45.399C45.8212 16.6667 46.0323 16.4556 46.0323 16.0333Z" fill="black"/>
<path d="M59.3604 13.3333C59.3604 13.1389 59.2965 12.9806 59.1688 12.8583C59.0465 12.7306 58.8882 12.6667 58.6937 12.6667C58.5049 12.6667 58.3465 12.7306 58.2188 12.8583C58.091 12.9806 58.0271 13.1389 58.0271 13.3333V13.3667C58.0271 13.7889 57.816 14 57.3937 14H56.0271C55.8382 14 55.6799 14.0639 55.5521 14.1917C55.4243 14.3139 55.3604 14.4722 55.3604 14.6667V16C55.3604 16.1889 55.4243 16.3472 55.5521 16.475C55.6799 16.6028 55.8382 16.6667 56.0271 16.6667H57.3604C57.5549 16.6667 57.7132 16.6028 57.8354 16.475C57.9632 16.3472 58.0271 16.1889 58.0271 16V15.9667C58.0271 15.5444 58.2382 15.3333 58.6604 15.3333H58.6937C58.8882 15.3333 59.0465 15.2694 59.1688 15.1417C59.2965 15.0139 59.3604 14.8556 59.3604 14.6667V13.3333ZM55.3604 17.3333C55.3604 17.1389 55.2965 16.9806 55.1688 16.8583C55.0465 16.7306 54.8882 16.6667 54.6937 16.6667H54.6604C54.2382 16.6667 54.0271 16.4556 54.0271 16.0333V14.6333C54.0271 14.2111 54.2382 14 54.6604 14H54.6937C54.8882 14 55.0465 13.9361 55.1688 13.8083C55.2965 13.6806 55.3604 13.5222 55.3604 13.3333V13.3C55.3604 12.8778 55.5715 12.6667 55.9938 12.6667H57.3604C57.5549 12.6667 57.7132 12.6028 57.8354 12.475C57.9632 12.3472 58.0271 12.1889 58.0271 12V11.9667C58.0271 11.5444 58.2382 11.3333 58.6604 11.3333H58.6937C58.8882 11.3333 59.0465 11.2694 59.1688 11.1417C59.2965 11.0139 59.3604 10.8556 59.3604 10.6667C59.3604 10.4722 59.2965 10.3139 59.1688 10.1917C59.0465 10.0639 58.8882 10 58.6937 10H56.0271C55.8271 10 55.6771 10.0611 55.5771 10.1833C55.4771 10.3 55.4271 10.45 55.4271 10.6333V10.7C55.4271 10.9 55.3604 11.0667 55.2271 11.2C55.0938 11.3333 54.9271 11.4 54.7271 11.4H54.6604C54.4604 11.4 54.2937 11.3333 54.1604 11.2C54.0271 11.0667 53.9604 10.9 53.9604 10.7V10.6333C53.9604 10.4333 54.0271 10.2667 54.1604 10.1333C54.2937 10 54.4604 9.93333 54.6604 9.93333H54.7271C54.9104 9.93333 55.0604 9.88333 55.1771 9.78333C55.2993 9.68333 55.3604 9.53333 55.3604 9.33333V9.3C55.3604 8.87778 55.5715 8.66667 55.9938 8.66667H58.7271C59.1493 8.66667 59.3604 8.87778 59.3604 9.3V9.33333C59.3604 9.52222 59.4243 9.68055 59.5521 9.80833C59.6799 9.93611 59.8382 10 60.0271 10H60.0604C60.4826 10 60.6938 10.2111 60.6938 10.6333V16.0333C60.6938 16.4556 60.9049 16.6667 61.3271 16.6667H61.3937C61.816 16.6667 62.0271 16.8778 62.0271 17.3V17.3667C62.0271 17.7889 61.816 18 61.3937 18H59.9938C59.5715 18 59.3604 17.7889 59.3604 17.3667V17.3333C59.3604 17.1389 59.2965 16.9806 59.1688 16.8583C59.0465 16.7306 58.8882 16.6667 58.6937 16.6667C58.5049 16.6667 58.3465 16.7306 58.2188 16.8583C58.091 16.9806 58.0271 17.1389 58.0271 17.3333V17.3667C58.0271 17.7889 57.816 18 57.3937 18H55.9938C55.5715 18 55.3604 17.7889 55.3604 17.3667V17.3333Z" fill="black"/>
<path d="M142.417 23C142.417 22.4477 142.864 22 143.417 22H144.917C145.469 22 145.917 22.4477 145.917 23V31C145.917 31.5523 145.469 32 144.917 32H143.417C142.864 32 142.417 31.5523 142.417 31V23Z" fill="#9747FF"/>
<path d="M142.417 1C142.417 0.447716 142.864 0 143.417 0H144.917C145.469 0 145.917 0.447715 145.917 1V9C145.917 9.55228 145.469 10 144.917 10H143.417C142.864 10 142.417 9.55228 142.417 9V1Z" fill="#9747FF"/>
<path d="M131.667 4C131.667 3.44772 132.114 3 132.667 3H134.667C135.219 3 135.667 3.44772 135.667 4V7C135.667 7.55228 136.114 8 136.667 8H138.667C139.219 8 139.667 8.44772 139.667 9V10.5C139.667 11.0523 140.114 11.5 140.667 11.5H142.667C143.219 11.5 143.667 11.9477 143.667 12.5V19.5C143.667 20.0523 143.219 20.5 142.667 20.5H140.667C140.114 20.5 139.667 20.9477 139.667 21.5V23C139.667 23.5523 139.219 24 138.667 24H136.667C136.114 24 135.667 24.4477 135.667 25V28C135.667 28.5523 135.219 29 134.667 29H132.667C132.114 29 131.667 28.5523 131.667 28V24C131.667 23.4477 132.114 23 132.667 23H134.667C135.219 23 135.667 22.5523 135.667 22V20.5C135.667 19.9477 136.114 19.5 136.667 19.5H138.667C139.219 19.5 139.667 19.0523 139.667 18.5V13.5C139.667 12.9477 139.219 12.5 138.667 12.5H136.667C136.114 12.5 135.667 12.0523 135.667 11.5V10C135.667 9.44772 135.219 9 134.667 9H132.667C132.114 9 131.667 8.55228 131.667 8V4Z" fill="#9747FF"/>
<path d="M156.667 4C156.667 3.44772 156.219 3 155.667 3H153.667C153.114 3 152.667 3.44772 152.667 4V7C152.667 7.55228 152.219 8 151.667 8H149.667C149.114 8 148.667 8.44772 148.667 9V10.5C148.667 11.0523 148.219 11.5 147.667 11.5H145.667C145.114 11.5 144.667 11.9477 144.667 12.5V19.5C144.667 20.0523 145.114 20.5 145.667 20.5H147.667C148.219 20.5 148.667 20.9477 148.667 21.5V23C148.667 23.5523 149.114 24 149.667 24H151.667C152.219 24 152.667 24.4477 152.667 25V28C152.667 28.5523 153.114 29 153.667 29H155.667C156.219 29 156.667 28.5523 156.667 28V24C156.667 23.4477 156.219 23 155.667 23H153.667C153.114 23 152.667 22.5523 152.667 22V20.5C152.667 19.9477 152.219 19.5 151.667 19.5H149.667C149.114 19.5 148.667 19.0523 148.667 18.5V13.5C148.667 12.9477 149.114 12.5 149.667 12.5H151.667C152.219 12.5 152.667 12.0523 152.667 11.5V10C152.667 9.44772 153.114 9 153.667 9H155.667C156.219 9 156.667 8.55228 156.667 8V4Z" fill="#9747FF"/>
<path d="M128.167 15.25C128.167 14.6977 128.614 14.25 129.167 14.25H137.167C137.719 14.25 138.167 14.6977 138.167 15.25V16.75C138.167 17.3023 137.719 17.75 137.167 17.75H129.167C128.614 17.75 128.167 17.3023 128.167 16.75V15.25Z" fill="#9747FF"/>
<path d="M150.167 15.25C150.167 14.6977 150.614 14.25 151.167 14.25H159.167C159.719 14.25 160.167 14.6977 160.167 15.25V16.75C160.167 17.3023 159.719 17.75 159.167 17.75H151.167C150.614 17.75 150.167 17.3023 150.167 16.75V15.25Z" fill="#9747FF"/>
</svg>
