<svg width="174" height="48" viewBox="0 0 174 48" fill="none" xmlns="http://www.w3.org/2000/svg">
<path d="M55.8521 41.286C52.7061 41.286 50.7481 38.976 50.7481 35.61C50.7481 32.222 52.7281 29.802 56.0061 29.802C57.5241 29.802 58.8661 30.44 59.5481 31.518V24.632H62.2101V41H59.7461L59.5701 39.306C58.9101 40.56 57.5021 41.286 55.8521 41.286ZM56.4461 38.822C58.3161 38.822 59.5261 37.48 59.5261 35.522C59.5261 33.564 58.3161 32.2 56.4461 32.2C54.5761 32.2 53.4321 33.586 53.4321 35.522C53.4321 37.458 54.5761 38.822 56.4461 38.822ZM69.6492 41.286C66.4152 41.286 64.1492 38.932 64.1492 35.566C64.1492 32.156 66.3712 29.802 69.5612 29.802C72.8172 29.802 74.8852 31.98 74.8852 35.368V36.182L66.7012 36.204C66.8992 38.118 67.9112 39.086 69.6932 39.086C71.1672 39.086 72.1352 38.514 72.4432 37.48H74.9292C74.4672 39.856 72.4872 41.286 69.6492 41.286ZM69.5832 32.002C67.9992 32.002 67.0312 32.86 66.7672 34.488H72.2232C72.2232 32.992 71.1892 32.002 69.5832 32.002ZM75.9773 37.7H78.5293C78.5513 38.646 79.2553 39.24 80.4873 39.24C81.7413 39.24 82.4233 38.734 82.4233 37.942C82.4233 37.392 82.1373 36.996 81.1693 36.776L79.2113 36.314C77.2533 35.874 76.3073 34.95 76.3073 33.212C76.3073 31.078 78.1113 29.802 80.6193 29.802C83.0613 29.802 84.7113 31.21 84.7333 33.322H82.1813C82.1593 32.398 81.5433 31.804 80.5093 31.804C79.4533 31.804 78.8373 32.288 78.8373 33.102C78.8373 33.718 79.3213 34.114 80.2453 34.334L82.2033 34.796C84.0293 35.214 84.9533 36.05 84.9533 37.722C84.9533 39.922 83.0833 41.286 80.3993 41.286C77.6933 41.286 75.9773 39.834 75.9773 37.7ZM88.1189 27.954C87.1949 27.954 86.4689 27.228 86.4689 26.326C86.4689 25.424 87.1949 24.72 88.1189 24.72C88.9989 24.72 89.7249 25.424 89.7249 26.326C89.7249 27.228 88.9989 27.954 88.1189 27.954ZM86.7769 41V30.132H89.4609V41H86.7769ZM91.3979 35.324C91.3979 32.156 93.4659 29.78 96.5679 29.78C98.1959 29.78 99.4719 30.462 100.11 31.628L100.264 30.132H102.75V40.45C102.75 44.08 100.572 46.346 97.0519 46.346C93.9279 46.346 91.7939 44.564 91.4639 41.66H94.1479C94.3239 43.068 95.4019 43.904 97.0519 43.904C98.8999 43.904 100.088 42.738 100.088 40.934V39.13C99.4059 40.142 98.0639 40.78 96.5019 40.78C93.4219 40.78 91.3979 38.47 91.3979 35.324ZM94.1039 35.258C94.1039 37.084 95.2699 38.448 97.0299 38.448C98.8779 38.448 100.022 37.15 100.022 35.258C100.022 33.41 98.8999 32.134 97.0299 32.134C95.2479 32.134 94.1039 33.476 94.1039 35.258ZM107.992 41H105.308V30.132H107.794L108.014 31.54C108.696 30.44 110.016 29.802 111.49 29.802C114.218 29.802 115.626 31.496 115.626 34.312V41H112.942V34.95C112.942 33.124 112.04 32.244 110.654 32.244C109.004 32.244 107.992 33.388 107.992 35.148V41Z" fill="black"/>
<path d="M126.964 24.918V38.404H133.696V41H124.148V24.918H126.964ZM138.604 41.286C136.294 41.286 134.886 39.944 134.886 37.898C134.886 35.896 136.338 34.642 138.912 34.444L142.168 34.202V33.96C142.168 32.486 141.288 31.892 139.924 31.892C138.34 31.892 137.46 32.552 137.46 33.696H135.172C135.172 31.342 137.108 29.802 140.056 29.802C142.982 29.802 144.786 31.386 144.786 34.4V41H142.432L142.234 39.394C141.772 40.516 140.298 41.286 138.604 41.286ZM139.484 39.262C141.134 39.262 142.19 38.272 142.19 36.6V36.028L139.924 36.204C138.252 36.358 137.614 36.908 137.614 37.788C137.614 38.778 138.274 39.262 139.484 39.262ZM149.689 41H147.203V24.632H149.887V31.716C150.591 30.506 152.043 29.78 153.693 29.78C156.795 29.78 158.687 32.2 158.687 35.632C158.687 38.976 156.641 41.286 153.517 41.286C151.889 41.286 150.503 40.56 149.865 39.306L149.689 41ZM149.909 35.522C149.909 37.48 151.119 38.822 152.967 38.822C154.859 38.822 155.981 37.458 155.981 35.522C155.981 33.586 154.859 32.2 152.967 32.2C151.119 32.2 149.909 33.564 149.909 35.522Z" fill="#7A3DAF"/>
<path d="M54.6201 20.286C52.3101 20.286 50.9021 18.944 50.9021 16.898C50.9021 14.896 52.3541 13.642 54.9281 13.444L58.1841 13.202V12.96C58.1841 11.486 57.3041 10.892 55.9401 10.892C54.3561 10.892 53.4761 11.552 53.4761 12.696H51.1881C51.1881 10.342 53.1241 8.802 56.0721 8.802C58.9981 8.802 60.8021 10.386 60.8021 13.4V20H58.4481L58.2501 18.394C57.7881 19.516 56.3141 20.286 54.6201 20.286ZM55.5001 18.262C57.1501 18.262 58.2061 17.272 58.2061 15.6V15.028L55.9401 15.204C54.2681 15.358 53.6301 15.908 53.6301 16.788C53.6301 17.778 54.2901 18.262 55.5001 18.262ZM65.9029 20H63.2189V9.132H65.6829L65.9029 10.408C66.4529 9.506 67.5529 8.802 69.1149 8.802C70.7649 8.802 71.9089 9.616 72.4809 10.87C73.0309 9.616 74.3069 8.802 75.9569 8.802C78.5969 8.802 80.0489 10.386 80.0489 12.894V20H77.3869V13.598C77.3869 12.036 76.5509 11.222 75.2749 11.222C73.9769 11.222 72.9869 12.058 72.9869 13.84V20H70.3029V13.576C70.3029 12.058 69.4889 11.244 68.2129 11.244C66.9369 11.244 65.9029 12.08 65.9029 13.84V20ZM85.6977 20.286C83.3877 20.286 81.9797 18.944 81.9797 16.898C81.9797 14.896 83.4317 13.642 86.0057 13.444L89.2617 13.202V12.96C89.2617 11.486 88.3817 10.892 87.0177 10.892C85.4337 10.892 84.5537 11.552 84.5537 12.696H82.2657C82.2657 10.342 84.2017 8.802 87.1497 8.802C90.0757 8.802 91.8797 10.386 91.8797 13.4V20H89.5257L89.3277 18.394C88.8657 19.516 87.3917 20.286 85.6977 20.286ZM86.5777 18.262C88.2277 18.262 89.2837 17.272 89.2837 15.6V15.028L87.0177 15.204C85.3457 15.358 84.7077 15.908 84.7077 16.788C84.7077 17.778 85.3677 18.262 86.5777 18.262ZM101.116 9.088V11.574H100.126C98.1904 11.574 96.9804 12.608 96.9804 14.72V20H94.2964V9.154H96.8264L96.9804 10.738C97.4424 9.66 98.4764 8.934 99.9284 8.934C100.302 8.934 100.676 8.978 101.116 9.088ZM106.839 20H104.155V11.376H102.065V9.132H104.155V5.744H106.839V9.132H108.951V11.376H106.839V20ZM113.083 20H110.399V3.632H113.105V10.54C113.787 9.484 115.063 8.802 116.625 8.802C119.309 8.802 120.717 10.496 120.717 13.312V20H118.033V13.95C118.033 12.124 117.131 11.244 115.767 11.244C114.073 11.244 113.083 12.432 113.083 14.06V20ZM126.368 20.286C124.058 20.286 122.65 18.944 122.65 16.898C122.65 14.896 124.102 13.642 126.676 13.444L129.932 13.202V12.96C129.932 11.486 129.052 10.892 127.688 10.892C126.104 10.892 125.224 11.552 125.224 12.696H122.936C122.936 10.342 124.872 8.802 127.82 8.802C130.746 8.802 132.55 10.386 132.55 13.4V20H130.196L129.998 18.394C129.536 19.516 128.062 20.286 126.368 20.286ZM127.248 18.262C128.898 18.262 129.954 17.272 129.954 15.6V15.028L127.688 15.204C126.016 15.358 125.378 15.908 125.378 16.788C125.378 17.778 126.038 18.262 127.248 18.262Z" fill="black"/>
<path d="M26.3865 13.0351C26.3865 13.2994 26.2818 13.553 26.0955 13.7404L21.4989 18.3614C20.8697 18.9939 19.7899 18.5484 19.7899 17.6562V4.35589C19.7899 3.8036 20.2376 3.35589 20.7899 3.35589H25.3865C25.9388 3.35589 26.3865 3.8036 26.3865 4.35589L26.3865 13.0351Z" fill="#7A3DAF"/>
<path d="M32.355 19.5554C32.1681 19.7423 31.9148 19.8476 31.6505 19.8483L25.1327 19.8656C24.2405 19.868 23.7921 18.7894 24.423 18.1585L33.8277 8.75377C34.2182 8.36324 34.8514 8.36324 35.2419 8.75377L38.4922 12.004C38.8827 12.3946 38.8827 13.0277 38.4922 13.4182L32.355 19.5554Z" fill="#7A3DAF"/>
<path d="M31.965 28.3865C31.7007 28.3865 31.4471 28.2818 31.2598 28.0955L26.6387 23.4989C26.0062 22.8697 26.4518 21.7899 27.344 21.7899H40.6442C41.1965 21.7899 41.6442 22.2376 41.6442 22.7899V27.3865C41.6442 27.9388 41.1965 28.3865 40.6442 28.3865L31.965 28.3865Z" fill="#7A3DAF"/>
<path d="M25.4447 34.355C25.2578 34.1681 25.1525 33.9148 25.1518 33.6505L25.1345 27.1327C25.1322 26.2405 26.2108 25.7921 26.8416 26.423L36.2464 35.8277C36.6369 36.2182 36.6369 36.8514 36.2464 37.2419L32.9961 40.4922C32.6056 40.8827 31.9724 40.8827 31.5819 40.4922L25.4447 34.355Z" fill="#7A3DAF"/>
<path d="M16.6138 33.9649C16.6138 33.7006 16.7184 33.447 16.9048 33.2596L21.5014 28.6386C22.1306 28.0061 23.2103 28.4516 23.2103 29.3438V42.6441C23.2103 43.1964 22.7626 43.6441 22.2103 43.6441H17.6138C17.0615 43.6441 16.6138 43.1964 16.6138 42.6441L16.6138 33.9649Z" fill="#7A3DAF"/>
<path d="M10.6452 27.4447C10.8321 27.2578 11.0854 27.1525 11.3497 27.1518L17.8675 27.1345C18.7597 27.1322 19.2082 28.2108 18.5773 28.8416L9.17257 38.2464C8.78205 38.6369 8.14888 38.6369 7.75836 38.2464L4.50809 34.9961C4.11757 34.6056 4.11757 33.9724 4.50809 33.5819L10.6452 27.4447Z" fill="#7A3DAF"/>
<path d="M11.0353 18.6136C11.2996 18.6136 11.5531 18.7183 11.7405 18.9047L16.3615 23.5012C16.9941 24.1304 16.5485 25.2102 15.6563 25.2102H2.35601C1.80372 25.2102 1.35601 24.7625 1.35601 24.2102V19.6136C1.35601 19.0614 1.80372 18.6136 2.35601 18.6136L11.0353 18.6136Z" fill="#7A3DAF"/>
<path d="M17.5555 12.6451C17.7424 12.832 17.8477 13.0853 17.8484 13.3496L17.8657 19.8674C17.8681 20.7596 16.7895 21.208 16.1586 20.5772L6.75389 11.1724C6.36336 10.7819 6.36336 10.1488 6.75389 9.75823L10.0042 6.50797C10.3947 6.11744 11.0278 6.11744 11.4184 6.50797L17.5555 12.6451Z" fill="#7A3DAF"/>
</svg>
