<svg width="174" height="48" viewBox="0 0 174 48" fill="none" xmlns="http://www.w3.org/2000/svg">
<path d="M50.9441 43V26.536H57.3041C62.3921 26.536 65.3921 29.08 65.3921 34.768C65.3921 40.432 62.3921 43 57.3041 43H50.9441ZM53.6321 40.696H57.2801C60.6641 40.696 62.6081 38.944 62.6081 35.032V34.528C62.6081 30.568 60.6641 28.84 57.2801 28.84H53.6321V40.696ZM73.3948 43.288C69.4828 43.288 67.4908 41.224 67.4908 36.688C67.4908 32.152 69.5068 30.088 73.4428 30.088C77.0188 30.088 78.9148 32.104 78.9148 36.352V37.312H70.0588C70.1308 40.048 71.1388 41.296 73.4188 41.296C75.2668 41.296 76.4188 40.312 76.4188 38.632H78.8668C78.8668 41.608 76.7068 43.288 73.3948 43.288ZM70.1068 35.488H76.2988C76.2988 33.016 75.1468 32.104 73.3948 32.104C71.3308 32.104 70.2988 33.16 70.1068 35.488ZM86.1079 43.288C82.5799 43.288 80.7319 41.704 80.7319 39.424C80.7319 39.256 80.7559 39.136 80.7559 39.04H83.2279V39.304C83.2279 40.816 84.5959 41.296 86.2279 41.296C87.6439 41.296 88.9639 40.792 88.9639 39.664C88.9639 38.248 87.2359 37.96 85.4359 37.456C83.3479 36.88 81.0679 36.256 81.0679 33.736C81.0679 31.384 83.1799 30.112 86.2279 30.112C89.3479 30.112 91.1719 31.576 91.1719 33.52C91.1719 33.736 91.1479 33.952 91.1479 34.024H88.6999V33.808C88.6999 32.896 87.9559 32.08 86.1079 32.08C84.4279 32.08 83.5879 32.68 83.5879 33.544C83.5879 34.648 84.8839 34.864 86.4199 35.344C88.6759 36.016 91.5079 36.376 91.5079 39.328C91.5079 42.16 89.2039 43.288 86.1079 43.288ZM94.0378 28.192V25.648H96.5338V28.192H94.0378ZM94.0378 43V30.376H96.5338V43H94.0378ZM101.869 47.368C100.117 47.368 98.5806 46.264 98.5806 44.344C98.5806 42.928 99.5166 42.088 100.549 41.632C99.7806 41.272 99.2766 40.576 99.2766 39.712C99.2766 38.56 100.285 37.768 101.437 37.552C100.309 36.808 99.6606 35.656 99.6606 34.264C99.6606 31.768 101.509 30.088 104.941 30.088C105.925 30.088 106.813 30.232 107.533 30.496C108.661 29.92 109.093 29.008 109.165 28.312H111.613C111.589 29.896 110.629 31.048 109.045 31.384C109.837 32.128 110.245 33.136 110.245 34.264C110.245 36.784 108.469 38.44 105.061 38.44H103.093C102.325 38.44 101.821 38.776 101.821 39.4C101.821 39.952 102.301 40.336 103.045 40.336H108.373C110.245 40.336 111.589 41.728 111.589 43.624C111.589 45.736 109.837 47.368 107.293 47.368H101.869ZM104.965 36.64C106.837 36.64 107.773 35.752 107.773 34.264C107.773 32.776 106.837 31.912 104.965 31.912C103.093 31.912 102.157 32.776 102.157 34.264C102.157 35.728 103.093 36.64 104.965 36.64ZM102.685 45.52H107.269C108.277 45.52 109.069 44.872 109.069 44.008C109.069 43.048 108.397 42.472 107.533 42.472H102.685C101.797 42.472 101.101 43.12 101.101 44.008C101.101 44.92 101.773 45.52 102.685 45.52ZM113.514 43V30.376H115.578L115.794 32.176H115.962C116.898 30.808 118.266 30.088 120.09 30.088C122.49 30.088 124.146 31.216 124.146 34.384V43H121.65V34.768C121.65 32.824 120.642 32.272 119.154 32.272C117.426 32.272 116.01 33.616 116.01 35.608V43H113.514Z" fill="black"/>
<path d="M132.41 43V26.536H135.986V39.952H144.29V43H132.41ZM149.638 43.288C147.958 43.288 145.558 42.712 145.558 39.736C145.558 36.232 148.798 35.32 153.622 35.32V34.384C153.622 33.304 153.166 32.536 151.582 32.536C149.974 32.536 149.398 33.184 149.398 33.88V34.168H146.158C146.134 34.024 146.134 33.856 146.134 33.664C146.134 31.48 148.246 30.088 151.558 30.088C155.014 30.088 156.958 31.456 156.958 34.12V39.856C156.958 40.432 157.318 40.696 157.774 40.696H158.566V42.88C158.23 43.048 157.558 43.264 156.598 43.264C155.206 43.264 154.246 42.616 153.958 41.584H153.79C152.926 42.592 151.654 43.288 149.638 43.288ZM150.766 40.768C152.542 40.768 153.622 39.664 153.622 38.08V37.384C150.934 37.384 148.942 37.864 148.942 39.376C148.942 40.288 149.614 40.768 150.766 40.768ZM167.28 43.288C165.648 43.288 164.208 42.64 163.392 41.296H163.224L162.96 43H160.224V25.648H163.56V31.768H163.704C164.472 30.664 165.768 30.088 167.4 30.088C170.328 30.088 172.368 32.152 172.368 36.664C172.368 41.224 170.424 43.288 167.28 43.288ZM166.248 40.552C168.24 40.552 168.96 39.352 168.96 36.976V36.424C168.96 34 168.24 32.824 166.248 32.824C164.352 32.824 163.536 34.216 163.536 36.496V36.928C163.536 39.208 164.352 40.552 166.248 40.552Z" fill="#7C51A1"/>
<path d="M49.1441 21L55.6001 4.536H59.0321L65.5121 21H62.6321L61.1681 17.184H53.3681L51.9041 21H49.1441ZM54.2321 14.904H60.2801L58.4321 10.08C58.2161 9.504 57.6641 7.896 57.3281 6.864H57.1841C56.8721 7.824 56.3441 9.36 56.0561 10.08L54.2321 14.904ZM67.2956 21V8.376H69.3596L69.5756 10.176H69.7436C70.6076 8.808 71.8796 8.088 73.5356 8.088C75.0956 8.088 76.3196 8.664 76.9196 10.176H77.0876C77.9276 8.856 79.2716 8.088 80.9756 8.088C83.2316 8.088 84.8396 9.192 84.8396 12.264V21H82.3436V12.72C82.3436 10.824 81.4076 10.272 80.1356 10.272C78.5756 10.272 77.3276 11.616 77.3276 13.608V21H74.8316V12.72C74.8316 10.824 73.9196 10.272 72.6476 10.272C71.0876 10.272 69.7916 11.616 69.7916 13.608V21H67.2956ZM91.1361 21.288C89.5041 21.288 87.1521 20.664 87.1521 17.76C87.1521 14.304 90.5361 13.44 95.2881 13.44V12.192C95.2881 10.944 94.8081 10.08 92.7921 10.08C90.7761 10.08 90.2001 10.92 90.2001 11.76V12.12H87.8001C87.7761 11.976 87.7761 11.808 87.7761 11.592C87.7761 9.36 89.8161 8.088 92.8641 8.088C96.1281 8.088 97.7841 9.528 97.7841 11.976V18.384C97.7841 18.984 98.1201 19.224 98.5521 19.224H99.4161V20.904C99.0081 21.072 98.4561 21.264 97.6881 21.264C96.4161 21.264 95.7201 20.52 95.5041 19.44H95.3601C94.4721 20.568 93.0801 21.288 91.1361 21.288ZM91.8321 19.224C93.8241 19.224 95.2881 17.928 95.2881 16.056V15.216C91.9761 15.216 89.7441 15.696 89.7441 17.544C89.7441 18.648 90.5361 19.224 91.8321 19.224ZM101.139 21V8.376H103.203L103.419 10.416H103.563C103.995 9.216 104.763 8.088 106.419 8.088C106.899 8.088 107.355 8.208 107.571 8.28V10.632H106.731C104.643 10.632 103.635 11.976 103.635 14.232V21H101.139ZM112.58 21.288C110.42 21.288 109.772 19.872 109.772 18.384V10.44H108.188V8.376H109.82L110.276 4.848H112.268V8.376H114.548V10.44H112.268V18.096C112.268 18.84 112.556 19.224 113.3 19.224H114.548V20.904C114.068 21.12 113.204 21.288 112.58 21.288ZM116.749 21V3.648H119.245V9.888H119.413C120.301 8.76 121.573 8.088 123.325 8.088C125.725 8.088 127.381 9.216 127.381 12.384V21H124.885V12.768C124.885 10.824 123.877 10.272 122.389 10.272C120.661 10.272 119.245 11.568 119.245 13.608V21H116.749ZM133.699 21.288C132.067 21.288 129.715 20.664 129.715 17.76C129.715 14.304 133.099 13.44 137.851 13.44V12.192C137.851 10.944 137.371 10.08 135.355 10.08C133.339 10.08 132.763 10.92 132.763 11.76V12.12H130.363C130.339 11.976 130.339 11.808 130.339 11.592C130.339 9.36 132.379 8.088 135.427 8.088C138.691 8.088 140.347 9.528 140.347 11.976V18.384C140.347 18.984 140.683 19.224 141.115 19.224H141.979V20.904C141.571 21.072 141.019 21.264 140.251 21.264C138.979 21.264 138.283 20.52 138.067 19.44H137.923C137.035 20.568 135.643 21.288 133.699 21.288ZM134.395 19.224C136.387 19.224 137.851 17.928 137.851 16.056V15.216C134.539 15.216 132.307 15.696 132.307 17.544C132.307 18.648 133.099 19.224 134.395 19.224Z" fill="black"/>
<path d="M26.3865 13.0351C26.3865 13.2994 26.2818 13.553 26.0955 13.7404L21.4989 18.3614C20.8697 18.9939 19.7899 18.5484 19.7899 17.6562V4.35589C19.7899 3.8036 20.2376 3.35589 20.7899 3.35589H25.3865C25.9388 3.35589 26.3865 3.8036 26.3865 4.35589L26.3865 13.0351Z" fill="#7C51A1"/>
<path d="M32.355 19.5554C32.1681 19.7423 31.9148 19.8476 31.6505 19.8483L25.1327 19.8656C24.2405 19.868 23.7921 18.7894 24.423 18.1585L33.8277 8.75377C34.2182 8.36324 34.8514 8.36324 35.2419 8.75377L38.4922 12.004C38.8827 12.3946 38.8827 13.0277 38.4922 13.4182L32.355 19.5554Z" fill="#7C51A1"/>
<path d="M31.965 28.3865C31.7007 28.3865 31.4471 28.2818 31.2598 28.0955L26.6387 23.4989C26.0062 22.8697 26.4518 21.7899 27.344 21.7899H40.6442C41.1965 21.7899 41.6442 22.2376 41.6442 22.7899V27.3865C41.6442 27.9388 41.1965 28.3865 40.6442 28.3865L31.965 28.3865Z" fill="#7C51A1"/>
<path d="M25.4447 34.355C25.2578 34.1681 25.1525 33.9148 25.1518 33.6505L25.1345 27.1327C25.1322 26.2405 26.2108 25.7921 26.8416 26.423L36.2464 35.8277C36.6369 36.2182 36.6369 36.8514 36.2464 37.2419L32.9961 40.4922C32.6056 40.8827 31.9724 40.8827 31.5819 40.4922L25.4447 34.355Z" fill="#7C51A1"/>
<path d="M16.6138 33.9649C16.6138 33.7006 16.7184 33.447 16.9048 33.2596L21.5014 28.6386C22.1306 28.0061 23.2103 28.4516 23.2103 29.3438V42.6441C23.2103 43.1964 22.7626 43.6441 22.2103 43.6441H17.6138C17.0615 43.6441 16.6138 43.1964 16.6138 42.6441L16.6138 33.9649Z" fill="#7C51A1"/>
<path d="M10.6452 27.4447C10.8321 27.2578 11.0854 27.1525 11.3497 27.1518L17.8675 27.1345C18.7597 27.1322 19.2082 28.2108 18.5773 28.8416L9.17257 38.2464C8.78205 38.6369 8.14888 38.6369 7.75836 38.2464L4.50809 34.9961C4.11757 34.6056 4.11757 33.9724 4.50809 33.5819L10.6452 27.4447Z" fill="#7C51A1"/>
<path d="M11.0353 18.6136C11.2996 18.6136 11.5531 18.7183 11.7405 18.9047L16.3615 23.5012C16.9941 24.1304 16.5485 25.2102 15.6563 25.2102H2.35601C1.80372 25.2102 1.35601 24.7625 1.35601 24.2102V19.6136C1.35601 19.0614 1.80372 18.6136 2.35601 18.6136L11.0353 18.6136Z" fill="#7C51A1"/>
<path d="M17.5555 12.6451C17.7424 12.832 17.8477 13.0853 17.8484 13.3496L17.8657 19.8674C17.8681 20.7596 16.7895 21.208 16.1586 20.5772L6.75389 11.1724C6.36336 10.7819 6.36336 10.1488 6.75389 9.75824L10.0042 6.50797C10.3947 6.11744 11.0278 6.11744 11.4184 6.50797L17.5555 12.6451Z" fill="#7C51A1"/>
</svg>
