<svg width="43" height="43" viewBox="0 0 43 43" fill="none" xmlns="http://www.w3.org/2000/svg">
<path d="M26.3865 11.0353C26.3865 11.2996 26.2818 11.5531 26.0955 11.7405L21.4989 16.3615C20.8697 16.9941 19.7899 16.5485 19.7899 15.6563V2.35601C19.7899 1.80372 20.2376 1.35601 20.7899 1.35601H25.3865C25.9388 1.35601 26.3865 1.80372 26.3865 2.35601L26.3865 11.0353Z" fill="#7C51A1"/>
<path d="M32.355 17.5555C32.1681 17.7424 31.9148 17.8477 31.6505 17.8484L25.1327 17.8657C24.2405 17.8681 23.7921 16.7895 24.423 16.1586L33.8277 6.75389C34.2182 6.36336 34.8514 6.36336 35.2419 6.75389L38.4922 10.0042C38.8827 10.3947 38.8827 11.0278 38.4922 11.4184L32.355 17.5555Z" fill="#7C51A1"/>
<path d="M31.965 26.3866C31.7007 26.3866 31.4471 26.282 31.2598 26.0956L26.6387 21.499C26.0062 20.8698 26.4518 19.79 27.344 19.79H40.6442C41.1965 19.79 41.6442 20.2377 41.6442 20.79V25.3866C41.6442 25.9389 41.1965 26.3866 40.6442 26.3866L31.965 26.3866Z" fill="#7C51A1"/>
<path d="M25.4447 32.3551C25.2578 32.1682 25.1525 31.915 25.1518 31.6507L25.1345 25.1328C25.1322 24.2407 26.2108 23.7922 26.8416 24.4231L36.2464 33.8278C36.6369 34.2183 36.6369 34.8515 36.2464 35.242L32.9961 38.4923C32.6056 38.8828 31.9724 38.8828 31.5819 38.4923L25.4447 32.3551Z" fill="#7C51A1"/>
<path d="M16.6138 31.965C16.6138 31.7007 16.7184 31.4471 16.9048 31.2598L21.5014 26.6387C22.1306 26.0062 23.2103 26.4518 23.2103 27.344V40.6442C23.2103 41.1965 22.7626 41.6442 22.2103 41.6442H17.6138C17.0615 41.6442 16.6138 41.1965 16.6138 40.6442L16.6138 31.965Z" fill="#7C51A1"/>
<path d="M10.6452 25.4448C10.8321 25.258 11.0854 25.1527 11.3497 25.152L17.8675 25.1347C18.7597 25.1323 19.2082 26.2109 18.5773 26.8418L9.17257 36.2465C8.78205 36.637 8.14888 36.637 7.75836 36.2465L4.50809 32.9962C4.11757 32.6057 4.11757 31.9725 4.50809 31.582L10.6452 25.4448Z" fill="#7C51A1"/>
<path d="M11.0353 16.6138C11.2996 16.6138 11.5531 16.7184 11.7405 16.9048L16.3615 21.5014C16.9941 22.1306 16.5485 23.2103 15.6563 23.2103H2.35601C1.80372 23.2103 1.35601 22.7626 1.35601 22.2103V17.6138C1.35601 17.0615 1.80372 16.6138 2.35601 16.6138L11.0353 16.6138Z" fill="#7C51A1"/>
<path d="M17.5555 10.6452C17.7424 10.8321 17.8477 11.0854 17.8484 11.3497L17.8657 17.8675C17.8681 18.7597 16.7895 19.2082 16.1586 18.5773L6.75389 9.17257C6.36336 8.78205 6.36336 8.14888 6.75389 7.75836L10.0042 4.50809C10.3947 4.11757 11.0278 4.11757 11.4184 4.50809L17.5555 10.6452Z" fill="#7C51A1"/>
</svg>
