<svg width="34" height="34" viewBox="0 0 34 34" fill="none" xmlns="http://www.w3.org/2000/svg">
<path d="M15.25 24C15.25 23.4477 15.6977 23 16.25 23H17.75C18.3023 23 18.75 23.4477 18.75 24V32C18.75 32.5523 18.3023 33 17.75 33H16.25C15.6977 33 15.25 32.5523 15.25 32V24Z" fill="#9747FF"/>
<rect x="15.25" y="1" width="3.5" height="10" rx="1" fill="#9747FF"/>
<path d="M4.5 5C4.5 4.44772 4.94772 4 5.5 4H7.5C8.05228 4 8.5 4.44772 8.5 5V8C8.5 8.55228 8.94772 9 9.5 9H11.5C12.0523 9 12.5 9.44772 12.5 10V11.5C12.5 12.0523 12.9477 12.5 13.5 12.5H15.5C16.0523 12.5 16.5 12.9477 16.5 13.5V17V20.5C16.5 21.0523 16.0523 21.5 15.5 21.5H13.5C12.9477 21.5 12.5 21.9477 12.5 22.5V24C12.5 24.5523 12.0523 25 11.5 25H9.5C8.94772 25 8.5 25.4477 8.5 26V29C8.5 29.5523 8.05228 30 7.5 30H5.5C4.94772 30 4.5 29.5523 4.5 29V25C4.5 24.4477 4.94772 24 5.5 24H7.5C8.05228 24 8.5 23.5523 8.5 23V21.5C8.5 20.9477 8.94772 20.5 9.5 20.5H11.5C12.0523 20.5 12.5 20.0523 12.5 19.5V17V14.5C12.5 13.9477 12.0523 13.5 11.5 13.5H9.5C8.94772 13.5 8.5 13.0523 8.5 12.5V11C8.5 10.4477 8.05228 10 7.5 10H5.5C4.94772 10 4.5 9.55228 4.5 9V5Z" fill="#9747FF"/>
<path d="M29.5 5C29.5 4.44772 29.0523 4 28.5 4H26.5C25.9477 4 25.5 4.44772 25.5 5V8C25.5 8.55228 25.0523 9 24.5 9H22.5C21.9477 9 21.5 9.44772 21.5 10V11.5C21.5 12.0523 21.0523 12.5 20.5 12.5H18.5C17.9477 12.5 17.5 12.9477 17.5 13.5V17V20.5C17.5 21.0523 17.9477 21.5 18.5 21.5H20.5C21.0523 21.5 21.5 21.9477 21.5 22.5V24C21.5 24.5523 21.9477 25 22.5 25H24.5C25.0523 25 25.5 25.4477 25.5 26V29C25.5 29.5523 25.9477 30 26.5 30H28.5C29.0523 30 29.5 29.5523 29.5 29V25C29.5 24.4477 29.0523 24 28.5 24H26.5C25.9477 24 25.5 23.5523 25.5 23V21.5C25.5 20.9477 25.0523 20.5 24.5 20.5H22.5C21.9477 20.5 21.5 20.0523 21.5 19.5V17V14.5C21.5 13.9477 21.9477 13.5 22.5 13.5H24.5C25.0523 13.5 25.5 13.0523 25.5 12.5V11C25.5 10.4477 25.9477 10 26.5 10H28.5C29.0523 10 29.5 9.55228 29.5 9V5Z" fill="#9747FF"/>
<path d="M1 16.25C1 15.6977 1.44772 15.25 2 15.25H10C10.5523 15.25 11 15.6977 11 16.25V17.75C11 18.3023 10.5523 18.75 10 18.75H2C1.44772 18.75 1 18.3023 1 17.75V16.25Z" fill="#9747FF"/>
<path d="M23 16.25C23 15.6977 23.4477 15.25 24 15.25H32C32.5523 15.25 33 15.6977 33 16.25V17.75C33 18.3023 32.5523 18.75 32 18.75H24C23.4477 18.75 23 18.3023 23 17.75V16.25Z" fill="#9747FF"/>
</svg>
